<svg width="30" height="30" viewBox="0 0 30 30" fill="none" xmlns="http://www.w3.org/2000/svg">
<path d="M16.0871 2.8125C17.5498 2.8125 18.7684 3.93406 18.8898 5.3916L18.9816 6.4873L19.0783 6.53223C19.5012 6.73367 19.9083 6.96637 20.2961 7.22852L20.3869 7.29199L21.3762 6.82715C22.6464 6.22846 24.1535 6.66017 24.9191 7.81641L25.0109 7.96484L26.0978 9.84766C26.8292 11.1144 26.4681 12.7305 25.2668 13.5645L24.3879 14.1729L24.3996 14.2881C24.4085 14.4059 24.4147 14.5241 24.4191 14.6426L24.426 15C24.426 15.2385 24.4173 15.4759 24.3996 15.7119L24.3879 15.8262L25.2658 16.4355C26.4194 17.2362 26.7994 18.7578 26.1808 19.999L26.0978 20.1523L25.0109 22.0352C24.2796 23.3019 22.6992 23.7964 21.3762 23.1729L20.3869 22.707L20.2971 22.7715C19.9094 23.0336 19.5021 23.2663 19.0793 23.4678L18.9826 23.5117L18.8898 24.6084C18.773 26.01 17.6422 27.1007 16.2551 27.1826L16.0871 27.1875H13.9123C12.4497 27.1873 11.231 26.0657 11.1096 24.6084L11.0139 23.46L10.8391 23.3779C10.4899 23.202 10.1517 23.0041 9.82733 22.7861L9.67401 22.6777L8.62421 23.1729C7.35399 23.7716 5.84588 23.3399 5.08026 22.1836L4.98846 22.0352L3.90155 20.1523C3.17018 18.8856 3.53223 17.2694 4.73358 16.4355L5.70721 15.7588L5.70038 15.6758C5.69239 15.5638 5.68583 15.4515 5.68182 15.3389L5.67596 15C5.67596 14.7735 5.68436 14.5476 5.70038 14.3232L5.70721 14.2393L4.73358 13.5645C3.58011 12.7637 3.20099 11.2421 3.81952 10.001L3.90155 9.84766L4.98846 7.96484C5.7198 6.69813 7.30062 6.2029 8.62323 6.82617L9.67401 7.32129L9.82733 7.21387C10.1517 6.9959 10.4899 6.79796 10.8391 6.62207L11.0139 6.53906L11.1096 5.3916C11.2264 3.98997 12.3581 2.8992 13.7453 2.81738L13.9123 2.8125H16.0871ZM13.9123 4.6875C13.4251 4.68774 13.0194 5.06117 12.9787 5.54688L12.7883 7.82324L12.2521 8.03906C11.574 8.31204 10.94 8.68394 10.3693 9.14062L9.91229 9.50586L7.8244 8.52246C7.38338 8.31467 6.85626 8.48012 6.61249 8.90234L5.52557 10.7852C5.28178 11.2074 5.40242 11.7464 5.80292 12.0244L7.71014 13.3477L7.62811 13.9219C7.57711 14.2766 7.55096 14.6365 7.55096 15C7.55096 15.3633 7.57716 15.7236 7.62811 16.0781L7.71014 16.6504L5.80292 17.9756C5.40236 18.2536 5.28178 18.7926 5.52557 19.2148L6.61249 21.0977C6.85624 21.5198 7.38292 21.6845 7.8244 21.4766L9.91229 20.4941L10.3693 20.8594C10.94 21.3161 11.574 21.688 12.2521 21.9609L12.7883 22.1768L12.9787 24.4531C13.0193 24.9387 13.425 25.3123 13.9123 25.3125H16.0871C16.5747 25.3125 16.9811 24.9387 17.0217 24.4521L17.2101 22.209L17.757 21.9971C18.4569 21.7262 19.112 21.3512 19.7004 20.8857L20.1555 20.5254L22.176 21.4775C22.6169 21.6851 23.1432 21.5198 23.3869 21.0977L24.4748 19.2148C24.7185 18.7927 24.598 18.2538 24.1974 17.9756L22.3781 16.7129L22.466 16.1348C22.5226 15.7618 22.551 15.3829 22.551 15C22.551 14.6171 22.5226 14.2382 22.466 13.8652L22.3781 13.2871L24.1974 12.0244C24.5979 11.7464 24.7186 11.2074 24.4748 10.7852L23.3869 8.90234C23.1432 8.48027 22.617 8.31491 22.176 8.52246L20.1555 9.47461L19.7004 9.11426C19.1117 8.64856 18.4563 8.27285 17.756 8.00195L17.2092 7.79102L17.0217 5.54688C16.9811 5.0611 16.5746 4.6875 16.0871 4.6875H13.9123Z" fill="url(#paint0_linear_671_3412)"/>
<path d="M15.0512 10.3125C17.64 10.3125 19.7387 12.4112 19.7387 15C19.7387 17.5888 17.64 19.6875 15.0512 19.6875C12.4624 19.6875 10.3637 17.5888 10.3637 15C10.3637 12.4112 12.4624 10.3125 15.0512 10.3125ZM15.0512 12.1875C13.4979 12.1875 12.2387 13.4467 12.2387 15C12.2387 16.5533 13.4979 17.8125 15.0512 17.8125C16.6045 17.8125 17.8637 16.5533 17.8637 15C17.8637 13.4467 16.6045 12.1875 15.0512 12.1875Z" fill="url(#paint1_linear_671_3412)"/>
<defs>
<linearGradient id="paint0_linear_671_3412" x1="-7.95077" y1="15" x2="16.3801" y2="37.9092" gradientUnits="userSpaceOnUse">
<stop offset="1" stop-color="#464646"/>
</linearGradient>
<linearGradient id="paint1_linear_671_3412" x1="5.67621" y1="15" x2="15.0512" y2="24.375" gradientUnits="userSpaceOnUse">
<stop offset="1" stop-color="#464646"/>
</linearGradient>
</defs>
</svg>
